Coordinates
version=1
nRows=4
nColumns=63
inDegrees=yes

Units are S.I. units (second, meters, Newtons, ...)
If the header above contains a line with 'inDegrees', this indicates whether rotational values are in degrees (yes) or radians (no).

endheader
time	pelvis_tilt	pelvis_list	pelvis_rotation	pelvis_tx	pelvis_ty	pelvis_tz	hip_flexion_r	hip_adduction_r	hip_rotation_r	knee_angle_r	knee_angle_r_beta	ankle_angle_r	subtalar_angle_r	mtp_angle_r	hip_flexion_l	hip_adduction_l	hip_rotation_l	knee_angle_l	knee_angle_l_beta	ankle_angle_l	subtalar_angle_l	mtp_angle_l	L5_S1_Flex_Ext	L5_S1_Lat_Bending	L5_S1_axial_rotation	L4_L5_Flex_Ext	L4_L5_Lat_Bending	L4_L5_axial_rotation	L3_L4_Flex_Ext	L3_L4_Lat_Bending	L3_L4_axial_rotation	L2_L3_Flex_Ext	L2_L3_Lat_Bending	L2_L3_axial_rotation	L1_L2_Flex_Ext	L1_L2_Lat_Bending	L1_L2_axial_rotation	L1_T12_Flex_Ext	L1_T12_Lat_Bending	L1_T12_axial_rotation	Abs_r3	Abs_r2	Abs_r1	Abs_t1	Abs_t2	neck_flexion	neck_bending	neck_rotation	arm_flex_r	arm_add_r	arm_rot_r	elbow_flex_r	pro_sup_r	wrist_flex_r	wrist_dev_r	arm_flex_l	arm_add_l	arm_rot_l	elbow_flex_l	pro_sup_l	wrist_flex_l	wrist_dev_l
      1.10000000	      3.32707851	     -9.56999272	     96.56847358	      0.09915137	      1.07762525	     -0.01363072	      7.47919665	     -0.97239710	     -6.90685809	     15.41900955	      0.26911248	     32.18775869	     -3.52583816	      0.00000000	      1.06914167	      0.20188549	     16.98926017	      1.01958500	      0.01779512	     25.96119531	    -12.38766607	      0.00000000	      0.02450676	      0.13817048	     -1.55761032	      0.04551151	      0.18376674	     -1.65496097	      0.04026216	      0.33594771	     -1.65496097	      0.02800878	      0.33594771	     -1.36290903	      0.02275698	      0.28175725	     -1.26555839	      0.01400316	      0.21402608	     -1.16820774	      0.17504936	      1.56301213	     -8.66296132	      0.00000000	      0.00000000	     18.80834432	     -0.66844794	      7.85993904	      5.48259496	    -10.07990915	     49.29799035	     48.38095957	     38.73033802	     -4.86531001	     26.03518542	     12.08417189	     -4.62196257	     58.52123702	     40.71684949	     84.01578414	     15.35748940	     13.24036170
      1.11666667	      3.39767542	     -9.67638209	     96.63868285	      0.09925208	      1.07700995	     -0.01313591	      7.66232521	     -0.88583538	     -6.43843662	     15.41801684	      0.26909516	     32.84827389	     -3.30012333	      0.00000000	      1.23441564	      0.12957981	     17.04337822	      1.01070103	      0.01764006	     26.14210125	    -12.40184526	      0.00000000	      0.02360421	      0.15042286	     -1.63503056	      0.04383539	      0.20006240	     -1.73721997	      0.03877936	      0.36573813	     -1.73721997	      0.02697726	      0.36573813	     -1.43065174	      0.02191887	      0.30674229	     -1.32846233	      0.01348745	      0.23300501	     -1.22627292	      0.16860254	      1.70161344	     -9.09354948	      0.00000000	      0.00000000	     19.69721234	     -0.30832737	      7.55415007	      5.40900883	     -9.99285588	     49.61309715	     48.42669234	     38.82276842	     -4.70110580	     25.89454776	     12.04700582	     -4.61238642	     58.29860466	     40.34896130	     83.84861465	     15.22476273	     13.11311637
      1.13333333	      3.60210830	     -9.89086941	     96.91005949	      0.09913378	      1.07638632	     -0.01195090	      8.10743723	     -0.76117868	     -6.75204481	     15.60543277	      0.27236618	     33.34180619	     -2.84242995	      0.00000000	      1.65007238	     -0.07084276	     16.68280922	      1.11160322	      0.01940114	     26.61563513	    -11.35854043	      0.00000000	      0.01026285	      0.17259716	     -1.83491347	      0.01905914	      0.22955422	     -1.94959556	      0.01686083	      0.41965273	     -1.94959556	      0.01172941	      0.41965273	     -1.60554928	      0.00953008	      0.35196013	     -1.49086719	      0.00586419	      0.26735300	     -1.37618510	      0.07330650	      1.95245358	    -10.20523823	      0.00000000	      0.00000000	     21.16927509	      0.41563389	      7.16487171	      6.43564694	    -10.11388921	     51.69921423	     47.60009978	     49.42030067	     -0.24057865	     22.79502455	     11.42107741	     -4.67633918	     56.16539806	     40.24233036	     84.03275892	     14.77099063	     12.43710163
      1.15000000	      3.85840158	    -10.08412556	     97.22750950	      0.09866300	      1.07572922	     -0.01139197	      8.42308545	     -0.62853271	     -7.25526526	     15.66881547	      0.27347242	     33.97091063	     -2.00987858	      0.00000000	      1.97419894	     -0.29228781	     17.13857690	      1.15153485	      0.02009807	     26.78107844	    -11.52411512	      0.00000000	      0.00543412	      0.21112945	     -1.92198863	      0.01009170	      0.28080217	     -2.04211292	      0.00892771	      0.51334015	     -2.04211292	      0.00621065	      0.51334015	     -1.68174005	      0.00504612	      0.43053518	     -1.56161577	      0.00310505	      0.32703952	     -1.44149148	      0.03881535	      2.38833859	    -10.68952419	      0.00000000	      0.00000000	     22.10643154	      0.57573625	      6.57274861	      6.26852891	     -9.95702357	     50.35220461	     47.20605245	     59.30218823	      2.74235097	     20.72997002	     11.62821501	     -4.67177005	     57.14946893	     39.79073876	     83.90361477	     13.02877944	     10.52450854
